<svg id="svg" xmlns="http://www.w3.org/2000/svg" xmlns:xlink="http://www.w3.org/1999/xlink" viewBox="0, 0, 400,400"><g id="svgg">
<path id="path0" d="M12.680 1.153 C 1.538 5.258,-1.544 13.385,2.052 29.176 C 2.966 33.188,9.752 64.741,17.134 99.294 C 35.310 184.375,35.216 183.941,36.028 186.415 C 37.012 189.410,39.434 192.674,42.233 194.776 L 44.579 196.539 42.967 197.644 C 40.302 199.470,37.286 203.182,36.278 205.876 C 33.900 212.233,0.394 371.791,0.554 376.000 C 1.002 387.794,12.729 395.514,24.244 391.596 C 25.792 391.070,45.482 381.604,68.000 370.562 C 90.518 359.520,169.718 320.730,244.000 284.361 C 406.789 204.661,392.506 211.774,395.247 209.030 C 398.978 205.296,399.765 203.108,399.765 196.471 C 399.765 185.910,398.052 184.119,379.059 174.813 C 325.472 148.556,152.835 64.056,110.353 43.290 C 81.882 29.373,52.024 14.720,44.000 10.726 C 22.965 0.257,18.673 -1.055,12.680 1.153 M209.977 112.471 L 381.582 196.471 374.674 199.906 C 338.477 217.906,19.027 373.956,18.928 373.687 C 18.856 373.491,23.049 353.444,28.246 329.136 C 33.442 304.829,41.079 269.072,45.216 249.676 C 52.668 214.741,52.996 213.444,54.513 212.967 C 55.235 212.741,71.468 211.600,155.529 205.866 C 172.612 204.701,203.106 202.594,223.294 201.183 C 243.482 199.773,262.594 198.474,265.765 198.298 L 271.529 197.976 271.529 196.664 C 271.529 195.070,271.866 195.128,256.941 194.123 C 198.532 190.187,55.070 180.198,54.287 180.012 C 52.923 179.688,53.229 180.842,47.998 156.247 C 45.437 144.205,37.825 108.570,31.083 77.058 C 24.340 45.545,18.824 19.562,18.824 19.316 C 18.824 19.071,23.222 21.030,28.597 23.670 C 33.973 26.311,115.593 66.271,209.977 112.471 " stroke="none" fill="var(--onPrimary)" fill-rule="evenodd"></path></g></svg>